<svg height="457pt" viewBox="-54 0 457 457.14286" width="457pt" xmlns="http://www.w3.org/2000/svg">
	<path fill="#4a4a4a" d="m340.1875 0h-330.972656c-5.050782 0-9.1445315 4.089844-9.1445315 9.144531v438.855469c0 5.054688 4.0937495 9.144531 9.1445315 9.144531h330.972656c5.050781 0 9.144531-4.089843 9.144531-9.144531v-438.855469c0-5.054687-4.09375-9.144531-9.144531-9.144531zm-9.144531 438.855469h-312.6875v-420.570313h312.6875zm0 0" />
	<path fill="#4a4a4a" d="m118.539062 190.230469c13.792969 13.054687 32.003907 20.851562 51.222657 21.957031 1.574219.097656 3.046875.105469 4.617187.105469 1.652344 0 3.203125-.007813 4.816406-.105469 19.324219-1.097656 37.683594-9.0625 51.367188-22.144531 1.695312-1.472657 3.28125-3.0625 4.621094-4.597657 13.792968-15.1875 21.390625-34.8125 21.390625-55.25 0-45.277343-36.828125-82.105468-82.101563-82.105468-45.320312 0-82.195312 36.828125-82.195312 82.105468 0 20.492188 7.636718 40.125 21.722656 55.5 1.519531 1.609376 3.050781 3.214844 4.539062 4.535157zm59.582032 3.707031c-1.269532.089844-2.464844.089844-3.742188.070312-1.179687-.007812-2.261718 0-3.496094-.070312-12.429687-.71875-24.152343-5.167969-34.042968-12.484375 8.398437-11.945313 22.582031-22.460937 37.539062-22.460937 14.925782 0 29.527344 10.550781 38.082032 22.15625-9.941407 7.46875-21.804688 12.074218-34.339844 12.789062zm-3.648438-127.5625c35.1875 0 63.816406 28.632812 63.816406 63.820312 0 13.757813-4.449218 27.027344-12.691406 38.109376-11.515625-14.65625-30.0625-27.597657-51.21875-27.597657-21.066406 0-39.421875 13.140625-50.765625 28.023438-8.445312-11.054688-13.050781-24.53125-13.050781-38.535157 0-35.1875 28.667969-63.820312 63.910156-63.820312zm0 0" />
	<path fill="#4a4a4a" d="m174.347656 135.285156c16.515625 0 29.953125-13.4375 29.953125-29.945312 0-16.507813-13.4375-29.945313-29.953125-29.945313-16.511718 0-29.949218 13.4375-29.949218 29.945313 0 16.507812 13.4375 29.945312 29.949218 29.945312zm0-41.605468c6.433594 0 11.664063 5.230468 11.664063 11.660156 0 6.429687-5.230469 11.660156-11.664063 11.660156s-11.664062-5.230469-11.664062-11.660156c0-6.429688 5.230468-11.660156 11.664062-11.660156zm0 0" />
	<path fill="#4a4a4a" d="m41.09375 276.480469h266.664062c5.050782 0 9.144532-4.085938 9.144532-9.140625 0-5.054688-4.09375-9.144532-9.144532-9.144532h-266.664062c-5.050781 0-9.144531 4.089844-9.144531 9.144532 0 5.054687 4.09375 9.140625 9.144531 9.140625zm0 0" />
	<path fill="#4a4a4a" d="m308.035156 324.480469h-266.667968c-5.050782 0-9.144532 4.089843-9.144532 9.144531s4.09375 9.144531 9.144532 9.144531h266.667968c5.050782 0 9.144532-4.089843 9.144532-9.144531s-4.09375-9.144531-9.144532-9.144531zm0 0" />
	<path fill="#4a4a4a" d="m308.308594 390.769531h-266.664063c-5.050781 0-9.144531 4.085938-9.144531 9.140625 0 5.054688 4.09375 9.144532 9.144531 9.144532h266.664063c5.046875 0 9.140625-4.089844 9.140625-9.144532 0-5.054687-4.09375-9.140625-9.140625-9.140625zm0 0" />
</svg>
